<svg width="24" height="24" viewBox="0 0 24 24" fill="none" xmlns="http://www.w3.org/2000/svg">
<path d="M21.7358 16.7708C21.7358 17.4228 21.6073 18.0684 21.3578 18.6708C21.1083 19.2732 20.7426 19.8205 20.2815 20.2815C19.8205 20.7426 19.2732 21.1083 18.6708 21.3578C18.0684 21.6073 17.4228 21.7358 16.7708 21.7358H7.22925C5.91245 21.7358 4.64958 21.2127 3.71846 20.2815C2.78735 19.3504 2.26425 18.0875 2.26425 16.7708V7.2285C2.26425 5.9117 2.78735 4.64883 3.71846 3.71771C4.64958 2.7866 5.91245 2.2635 7.22925 2.2635H16.7708C18.0875 2.2635 19.3504 2.7866 20.2815 3.71771C21.2127 4.64883 21.7358 5.9117 21.7358 7.2285V16.7708ZM24 7.2285C24 3.23625 20.763 0 16.77 0H7.23C3.23625 0 0 3.23625 0 7.2285V16.7708C0 20.763 3.237 24 7.23 24H16.77C18.6875 24 20.5265 23.2383 21.8824 21.8824C23.2383 20.5265 24 18.6875 24 16.77V7.2285ZM12.0405 15.951C11.034 15.9498 10.069 15.5494 9.35728 14.8377C8.64556 14.126 8.24519 13.161 8.244 12.1545C8.24519 11.148 8.64556 10.183 9.35728 9.47128C10.069 8.75956 11.034 8.35919 12.0405 8.358C13.0471 8.35899 14.0122 8.7593 14.7239 9.47107C15.4357 10.1828 15.836 11.1479 15.837 12.1545C15.836 13.1611 15.4357 14.1262 14.7239 14.8379C14.0122 15.5497 13.0471 15.95 12.0405 15.951ZM12.0405 6.228C8.77275 6.228 6.114 8.88675 6.114 12.1545C6.114 15.423 8.77275 18.081 12.0405 18.081C15.309 18.081 17.9678 15.423 17.9678 12.1545C17.9678 8.88675 15.309 6.228 12.0405 6.228ZM18.3135 4.41825C18.1282 4.41825 17.9447 4.45475 17.7735 4.52567C17.6023 4.59658 17.4467 4.70052 17.3157 4.83156C17.1846 4.96259 17.0807 5.11816 17.0098 5.28936C16.9389 5.46057 16.9024 5.64406 16.9024 5.82938C16.9024 6.01469 16.9389 6.19818 17.0098 6.36939C17.0807 6.54059 17.1846 6.69616 17.3157 6.82719C17.4467 6.95823 17.6023 7.06217 17.7735 7.13308C17.9447 7.204 18.1282 7.2405 18.3135 7.2405C18.6878 7.2405 19.0467 7.09183 19.3113 6.82719C19.576 6.56255 19.7246 6.20363 19.7246 5.82938C19.7246 5.45512 19.576 5.0962 19.3113 4.83156C19.0467 4.56692 18.6878 4.41825 18.3135 4.41825Z" fill="white"/>
</svg>
